<svg width="43" height="44" viewBox="0 0 43 44" fill="none" xmlns="http://www.w3.org/2000/svg">
<rect x="0.5" y="1.47583" width="41.2048" height="41.2048" rx="9.5" stroke="#969696"/>
<path d="M22.6082 19.1658C23.8568 19.1658 25.0474 19.1658 26.2379 19.1658C27.0607 19.1658 27.3123 19.4561 27.2059 20.2595C27.08 21.2371 26.9542 22.2051 26.8477 23.1827C26.78 23.7828 26.5574 24.0054 25.9476 24.0151C25.0087 24.0248 24.0795 24.0151 23.1406 24.0151C22.9857 24.0151 22.8211 24.0151 22.5888 24.0151C22.5888 24.2474 22.5888 24.4313 22.5888 24.6152C22.5888 27.6932 22.5888 30.7712 22.5888 33.8589C22.5888 34.5946 22.4824 34.6914 21.7564 34.6914C20.7595 34.6914 19.7528 34.6914 18.7558 34.6914C18.0686 34.6914 17.9331 34.5655 17.9428 33.8783C17.9525 30.8293 17.9718 27.7803 17.9815 24.7314C17.9815 23.957 18.0783 24.0151 17.2459 24.0151C16.6458 24.0151 16.0553 24.0248 15.4552 24.0054C14.8454 23.986 14.6131 23.7441 14.6034 23.1439C14.6034 22.0986 14.5937 21.0435 14.6034 19.9982C14.6034 19.4271 14.8551 19.1754 15.4262 19.1658C16.0844 19.1561 16.7522 19.1367 17.4104 19.1754C17.8557 19.2045 17.9428 19.0302 17.9428 18.6237C17.9331 17.4912 17.9428 16.3684 17.9815 15.236C18.1267 11.9837 20.2949 9.89299 23.5471 9.86395C24.4666 9.85427 25.3862 9.85427 26.3057 9.86395C26.8477 9.86395 27.1091 10.1156 27.1188 10.6577C27.1381 11.5481 27.1381 12.429 27.1188 13.3195C27.1091 13.8712 26.8381 14.1325 26.267 14.1422C25.6378 14.1616 25.0087 14.1422 24.3795 14.1616C23.3051 14.2003 22.6953 14.7036 22.6179 15.7683C22.5501 16.8814 22.6082 17.9946 22.6082 19.1658Z" fill="#969696"/>
</svg>
