<svg width="43" height="44" viewBox="0 0 43 44" fill="none" xmlns="http://www.w3.org/2000/svg">
<rect x="0.765137" y="1.47583" width="41.2048" height="41.2048" rx="9.5" stroke="#969696"/>
<path d="M32.7426 21.9364C32.6713 23.8338 32.6713 25.7222 32.511 27.5928C32.2527 30.6838 30.0079 32.982 26.9169 33.1958C24.4317 33.374 21.9375 33.3561 19.4523 33.3561C18.0003 33.3561 16.5394 33.3294 15.1053 33.1245C12.2281 32.7148 10.2417 30.5502 9.9477 27.6552C9.86753 26.8268 9.80518 25.9984 9.80518 25.1699C9.80518 22.462 9.81409 19.7451 9.88535 17.0372C9.90316 16.2622 10.0546 15.4516 10.304 14.7123C11.0701 12.4408 12.718 11.1314 15.0518 10.7305C16.0139 10.5613 17.0115 10.5078 17.9914 10.5078C20.6904 10.4989 23.3895 10.5256 26.0885 10.5702C27.104 10.588 28.1017 10.775 29.037 11.2115C31.1659 12.2092 32.3061 13.9551 32.511 16.2444C32.6802 18.1328 32.6713 20.048 32.7426 21.9364ZM11.8094 21.9275C11.8629 23.6645 11.8629 25.4283 11.9787 27.1831C12.0856 28.8666 12.8249 30.2295 14.4906 30.8263C15.2211 31.0936 16.0317 31.2272 16.8067 31.2361C19.7551 31.2806 22.6947 31.2806 25.6431 31.2361C26.3557 31.2272 27.104 31.1203 27.781 30.8976C29.5447 30.3186 30.4266 28.9468 30.4711 27.1831C30.5602 23.7091 30.5691 20.2351 30.48 16.761C30.4177 14.3025 28.8499 12.7347 26.4092 12.6724C22.953 12.5833 19.479 12.5833 16.0228 12.6724C13.6266 12.7347 12.1123 14.3203 11.9698 16.7165C11.8718 18.4446 11.8629 20.1727 11.8094 21.9275Z" fill="#969696"/>
<path d="M27.1131 21.9363C27.1042 25.1966 24.4675 27.8243 21.2161 27.8065C17.9648 27.7887 15.3638 25.1698 15.3638 21.9274C15.3727 18.6672 18.0094 16.0394 21.2607 16.0572C24.512 16.075 27.1131 18.6939 27.1131 21.9363ZM21.2429 25.7399C23.3362 25.731 25.0465 24.0207 25.0465 21.9185C25.0465 19.8163 23.3362 18.106 21.2429 18.106C19.1317 18.106 17.4125 19.8252 17.4215 21.9452C17.4304 24.0475 19.1496 25.7488 21.2429 25.7399Z" fill="#969696"/>
<path d="M28.7167 15.7991C28.7256 16.5563 28.1288 17.1709 27.3805 17.1798C26.6056 17.1977 25.982 16.6008 25.982 15.8259C25.9731 15.0509 26.5789 14.4363 27.3538 14.4452C28.1021 14.4452 28.7078 15.0509 28.7167 15.7991Z" fill="#969696"/>
</svg>
