<svg width="43" height="44" viewBox="0 0 43 44" fill="none" xmlns="http://www.w3.org/2000/svg">
<rect x="1.03027" y="1.47583" width="41.2048" height="41.2048" rx="9.5" stroke="#969696"/>
<path d="M22.7961 32.9487C21.251 32.9487 19.749 32.9487 18.2212 32.9487C18.2212 28.0285 18.2212 23.1169 18.2212 18.1794C19.6627 18.1794 21.1129 18.1794 22.5976 18.1794C22.5976 18.8355 22.5976 19.4829 22.5976 20.1648C22.658 20.1303 22.6839 20.1216 22.7012 20.1044C23.6679 18.5506 25.1095 17.8601 26.8876 17.8083C27.9062 17.7737 28.8989 17.9032 29.8398 18.3434C31.0482 18.9132 31.7301 19.9145 32.1013 21.1575C32.4034 22.1501 32.507 23.1773 32.507 24.2045C32.5243 27.0531 32.5156 29.9016 32.5243 32.7501C32.5243 32.7933 32.5156 32.8364 32.5156 32.8969C30.9964 32.8969 29.4858 32.8969 27.9321 32.8969C27.9321 32.8019 27.9321 32.6983 27.9321 32.5947C27.9321 30.1778 27.9407 27.7609 27.9235 25.3439C27.9235 24.8001 27.8803 24.239 27.7767 23.7039C27.5005 22.1933 26.5165 21.6754 25.1008 21.848C23.8147 22.0034 23.1155 22.7544 22.9083 24.1355C22.8393 24.6447 22.8047 25.154 22.7961 25.6719C22.7875 27.9767 22.7875 30.29 22.7875 32.5947C22.7961 32.707 22.7961 32.8192 22.7961 32.9487Z" fill="#969696"/>
<path d="M10.7368 18.1799C12.2733 18.1799 13.7839 18.1799 15.3031 18.1799C15.3031 23.1001 15.3031 28.0117 15.3031 32.9405C13.7839 32.9405 12.2647 32.9405 10.7368 32.9405C10.7368 28.0203 10.7368 23.1174 10.7368 18.1799Z" fill="#969696"/>
<path d="M15.6747 13.4493C15.6833 14.9167 14.4921 16.1338 13.0333 16.1424C11.5745 16.151 10.3574 14.9339 10.3574 13.4579C10.3574 12.0077 11.5486 10.8079 12.9988 10.7993C14.4662 10.782 15.666 11.9732 15.6747 13.4493Z" fill="#969696"/>
</svg>
